<svg xmlns="http://www.w3.org/2000/svg" xmlns:xlink="http://www.w3.org/1999/xlink" width="500" zoomAndPan="magnify" viewBox="0 0 375 374.999991" height="500" preserveAspectRatio="xMidYMid meet" version="1.2"><defs><clipPath id="b16cfdc1df"><path d="M 168.65625 84.199219 L 349.851562 84.199219 L 349.851562 99.09375 L 168.65625 99.09375 Z M 334.960938 99.09375 L 349.851562 99.09375 L 349.851562 265.398438 L 334.960938 265.398438 Z M 334.960938 99.09375 "/></clipPath><clipPath id="6dbf61a875"><path d="M 27.9375 157.804688 L 42.832031 157.804688 L 42.832031 189.824219 L 27.9375 189.824219 Z M 27.9375 189.824219 L 42.832031 189.824219 L 42.832031 324.109375 L 27.9375 324.109375 Z M 27.9375 324.109375 L 209.132812 324.109375 L 209.132812 339 L 27.9375 339 Z M 27.9375 324.109375 "/></clipPath><clipPath id="8fd38771ec"><path d="M 164.007812 136.625 L 371.535156 136.625 L 371.535156 313.488281 L 164.007812 313.488281 Z M 164.007812 136.625 "/></clipPath><clipPath id="ac5fda0243"><path d="M 8.3125 63 L 239 63 L 239 306 L 8.3125 306 Z M 8.3125 63 "/></clipPath><clipPath id="afce894e03"><path d="M 86 142.964844 L 134.910156 142.964844 L 134.910156 164 L 86 164 Z M 86 142.964844 "/></clipPath><clipPath id="91b3c5b864"><path d="M 78.660156 152 L 95 152 L 95 172.964844 L 78.660156 172.964844 Z M 78.660156 152 "/></clipPath></defs><g id="b25c49d943"><g clip-rule="nonzero" clip-path="url(#b16cfdc1df)"><path style=" stroke:none;fill-rule:nonzero;fill:#ff914d;fill-opacity:1;" d="M 349.851562 84.199219 L 349.851562 265.398438 L 168.65625 265.398438 L 168.65625 84.199219 Z M 349.851562 84.199219 "/></g><g clip-rule="nonzero" clip-path="url(#6dbf61a875)"><path style=" stroke:none;fill-rule:nonzero;fill:#9c94ff;fill-opacity:1;" d="M 27.9375 339 L 27.9375 157.804688 L 209.132812 157.804688 L 209.132812 339 Z M 27.9375 339 "/></g><g clip-rule="nonzero" clip-path="url(#8fd38771ec)"><path style=" stroke:none;fill-rule:nonzero;fill:#8277ff;fill-opacity:1;" d="M 332.71875 289.539062 L 246.183594 289.539062 L 225.15625 313.488281 L 202.917969 289.539062 C 181.566406 289.539062 164.097656 272.070312 164.097656 250.71875 L 164.097656 175.507812 C 164.097656 154.15625 181.566406 136.6875 202.917969 136.6875 L 332.71875 136.6875 C 354.070312 136.6875 371.535156 154.15625 371.535156 175.507812 L 371.535156 250.71875 C 371.535156 272.070312 354.070312 289.539062 332.71875 289.539062 "/></g><path style=" stroke:none;fill-rule:nonzero;fill:#6e62fa;fill-opacity:1;" d="M 176.898438 279.40625 C 230.113281 251.320312 258.316406 196.121094 242.542969 136.6875 L 202.917969 136.6875 C 181.566406 136.6875 164.097656 154.15625 164.097656 175.507812 L 164.097656 250.71875 C 164.097656 262.070312 169.066406 272.292969 176.898438 279.40625 "/><g clip-rule="nonzero" clip-path="url(#ac5fda0243)"><path style=" stroke:none;fill-rule:nonzero;fill:#ffbd59;fill-opacity:1;" d="M 238.90625 163.78125 C 238.90625 210.539062 202.128906 249.824219 152.371094 260.925781 C 143.191406 262.972656 158.03125 294.390625 164.097656 305.402344 C 130.535156 305.402344 111.445312 263.640625 105.542969 262.832031 C 50.503906 255.269531 8.417969 213.800781 8.417969 163.78125 C 8.417969 108.394531 60.015625 63.5 123.660156 63.5 C 187.308594 63.5 238.90625 108.394531 238.90625 163.78125 "/></g><path style=" stroke:none;fill-rule:nonzero;fill:#ff914d;fill-opacity:1;" d="M 18.136719 141.054688 C 18.136719 141.054688 35.964844 90.753906 95.175781 75.472656 C 154.390625 60.191406 196.851562 95.847656 196.851562 95.847656 C 196.851562 95.847656 92.3125 36 18.136719 141.054688 "/><path style=" stroke:none;fill-rule:nonzero;fill:#9c94ff;fill-opacity:1;" d="M 250.125 142.746094 C 250.125 142.746094 304.714844 142.746094 314.421875 142.746094 C 324.125 142.746094 346.566406 140.925781 352.328125 149.722656 C 352.328125 149.722656 337.773438 148.207031 304.414062 148.207031 C 271.050781 148.207031 250.125 147.902344 250.125 147.902344 L 250.125 142.746094 "/><g clip-rule="nonzero" clip-path="url(#afce894e03)"><path style=" stroke:none;fill-rule:nonzero;fill:#000000;fill-opacity:1;" d="M 99.484375 163.402344 C 100.164062 162.796875 101.199219 162.246094 102.195312 161.96875 C 102.953125 161.757812 105.414062 161.292969 106.417969 161.171875 C 106.679688 161.140625 107.390625 161.050781 108.003906 160.976562 C 108.695312 160.886719 110.347656 160.835938 112.390625 160.839844 C 115.25 160.839844 115.859375 160.871094 117.125 161.078125 C 118.773438 161.34375 119.800781 161.597656 121.164062 162.066406 C 121.792969 162.285156 122.324219 162.394531 122.75 162.398438 C 123.375 162.402344 124.574219 162.601562 124.960938 162.769531 C 125.132812 162.84375 125.144531 162.808594 125.078125 162.433594 C 124.992188 161.925781 123.96875 158.242188 123.246094 155.824219 C 122.640625 153.800781 123.179688 154.347656 123.179688 154.347656 L 123.65625 154.28125 C 125.648438 153.992188 134.464844 152.519531 134.519531 152.464844 C 134.636719 152.347656 123.21875 144.53125 121.894531 143.820312 C 121.714844 143.722656 121.296875 143.773438 119.832031 144.078125 C 118.824219 144.285156 117.734375 144.523438 117.417969 144.605469 C 116.824219 144.761719 115.488281 145.050781 109.324219 146.371094 C 107.40625 146.785156 104.027344 147.511719 101.816406 147.992188 C 95.523438 149.359375 95.300781 149.402344 95.117188 149.359375 C 94.730469 149.265625 95.289062 149.117188 99.4375 148.21875 C 100.28125 148.035156 102.875 147.472656 105.199219 146.964844 C 107.527344 146.457031 110.453125 145.832031 111.703125 145.574219 C 112.957031 145.3125 115.707031 144.738281 117.820312 144.292969 C 121.324219 143.550781 121.6875 143.492188 121.996094 143.625 C 122.753906 143.949219 128.410156 147.664062 131.800781 150.066406 C 134.578125 152.035156 134.867188 152.230469 134.867188 152.144531 C 134.867188 152.007812 133.183594 150.777344 129.472656 148.203125 C 127.234375 146.648438 124.78125 144.941406 124.027344 144.414062 C 123.269531 143.882812 122.449219 143.339844 122.203125 143.207031 L 121.757812 142.960938 L 120.988281 143.164062 C 120.082031 143.402344 118.472656 143.769531 110.382812 145.574219 C 107.066406 146.3125 103.949219 147.015625 103.457031 147.132812 C 99.707031 148.023438 97.429688 148.457031 96.371094 148.476562 C 94.949219 148.507812 94.429688 148.632812 94.003906 149.054688 C 93.816406 149.238281 93.617188 149.386719 93.5625 149.386719 C 93.359375 149.375 86.9375 150.816406 86.945312 150.917969 C 86.964844 151.207031 93.394531 149.625 93.53125 149.539062 C 93.582031 149.507812 93.621094 149.554688 93.621094 149.644531 C 93.621094 149.757812 93.390625 149.855469 92.851562 149.96875 C 91.789062 150.195312 88.664062 150.851562 87.644531 151.058594 C 87.179688 151.15625 86.757812 151.273438 86.710938 151.320312 C 86.621094 151.410156 87.117188 151.574219 89.441406 152.238281 C 90.199219 152.457031 91.230469 152.761719 91.730469 152.921875 L 92.648438 153.210938 L 92.949219 152.964844 C 93.113281 152.832031 93.355469 152.722656 93.484375 152.722656 C 93.644531 152.722656 93.738281 152.644531 93.769531 152.480469 C 94.316406 149.75 94.550781 148.851562 94.722656 148.851562 C 94.742188 148.851562 94.695312 149.128906 94.613281 149.46875 C 93.816406 152.820312 93.828125 152.761719 94.03125 152.9375 C 94.136719 153.023438 94.304688 153.242188 94.40625 153.417969 C 94.570312 153.714844 94.742188 153.789062 96.351562 154.269531 C 97.320312 154.5625 98.558594 154.9375 99.105469 155.109375 L 100.097656 155.421875 L 100.03125 155.816406 C 99.539062 158.839844 98.90625 163.265625 98.929688 163.53125 L 98.960938 163.875 Z M 99.484375 163.402344 "/></g><g clip-rule="nonzero" clip-path="url(#91b3c5b864)"><path style=" stroke:none;fill-rule:nonzero;fill:#000000;fill-opacity:1;" d="M 84.5 172.066406 C 84.75 171.65625 85.371094 170.871094 85.878906 170.320312 C 86.722656 169.40625 87.546875 168.378906 88.550781 166.996094 C 88.945312 166.453125 89.171875 166.195312 89.015625 166.472656 C 88.609375 167.175781 87.738281 168.398438 86.972656 169.339844 C 85.632812 170.980469 85.050781 171.75 84.878906 172.113281 C 84.726562 172.433594 84.726562 172.433594 85.054688 172.0625 C 87.046875 169.78125 88.585938 167.621094 89.992188 165.128906 C 91.550781 162.371094 91.875 161.554688 91.796875 160.605469 C 91.765625 160.191406 91.789062 160.023438 91.882812 160.023438 C 92.082031 160.023438 92.628906 159.335938 92.871094 158.777344 C 93.148438 158.148438 93.148438 157.765625 92.878906 157.417969 C 92.761719 157.265625 92.667969 157.078125 92.667969 157 C 92.667969 156.640625 92.90625 156.050781 93.15625 155.777344 C 93.390625 155.519531 93.417969 155.417969 93.359375 155.019531 C 93.300781 154.625 93.320312 154.550781 93.503906 154.492188 C 93.859375 154.378906 94.359375 153.710938 94.359375 153.351562 C 94.359375 152.605469 93.378906 152.132812 92.792969 152.589844 C 92.464844 152.847656 92.363281 153.574219 92.601562 153.945312 C 92.839844 154.316406 92.816406 154.53125 92.507812 154.777344 C 92.292969 154.949219 92.246094 155.078125 92.261719 155.441406 C 92.289062 156.234375 92.078125 156.667969 91.527344 156.9375 C 90.800781 157.292969 90.613281 157.621094 90.585938 158.578125 C 90.574219 159.019531 90.535156 159.429688 90.5 159.488281 C 90.460938 159.550781 90.273438 159.664062 90.078125 159.746094 C 89.886719 159.832031 89.304688 160.296875 88.789062 160.785156 C 86.378906 163.070312 82.746094 164.746094 79.367188 165.136719 C 78.878906 165.191406 78.707031 165.253906 78.707031 165.375 C 78.707031 165.511719 78.847656 165.527344 79.632812 165.472656 C 80.140625 165.4375 80.914062 165.316406 81.351562 165.199219 C 82.863281 164.800781 85.070312 163.824219 86.375 162.976562 C 86.695312 162.769531 86.957031 162.625 86.957031 162.65625 C 86.957031 162.6875 86.515625 163.011719 85.976562 163.371094 C 84.96875 164.046875 84.339844 164.371094 82.886719 164.960938 C 81.667969 165.457031 81.601562 165.488281 81.75 165.5 C 82 165.511719 84.261719 164.625 84.945312 164.242188 C 85.539062 163.910156 86.273438 163.425781 87.09375 162.820312 C 87.308594 162.660156 87.308594 162.664062 87.140625 162.929688 C 86.976562 163.179688 86.359375 163.691406 85.632812 164.175781 C 84.917969 164.65625 81.199219 166.257812 80.171875 166.53125 C 79.84375 166.617188 79.375 166.6875 79.132812 166.6875 C 78.738281 166.6875 78.695312 166.710938 78.726562 166.929688 C 78.757812 167.152344 78.820312 167.171875 79.605469 167.207031 C 81.234375 167.273438 82.769531 166.867188 84.609375 165.882812 C 85.117188 165.613281 85.410156 165.492188 85.265625 165.609375 C 84.644531 166.113281 82.203125 167.234375 80.824219 167.652344 C 80.039062 167.890625 79.289062 168.085938 79.15625 168.085938 C 78.832031 168.085938 78.828125 168.484375 79.152344 168.535156 C 79.300781 168.554688 79.410156 168.667969 79.449219 168.835938 C 79.515625 169.125 79.78125 169.175781 80.289062 169.003906 L 80.546875 168.917969 L 80.261719 169.261719 C 79.894531 169.703125 79.902344 169.921875 80.292969 170.21875 C 80.546875 170.40625 80.601562 170.511719 80.546875 170.722656 C 80.457031 171.085938 80.671875 171.0625 80.867188 170.683594 C 80.949219 170.515625 81.105469 170.3125 81.210938 170.226562 C 81.394531 170.082031 81.394531 170.085938 81.21875 170.296875 C 80.96875 170.597656 80.984375 170.632812 81.351562 170.578125 C 81.527344 170.554688 81.667969 170.558594 81.667969 170.59375 C 81.667969 170.628906 81.527344 170.734375 81.351562 170.824219 C 81.121094 170.945312 81.035156 171.070312 81.035156 171.269531 C 81.035156 171.464844 81.078125 171.527344 81.1875 171.488281 C 81.269531 171.453125 81.359375 171.484375 81.382812 171.554688 C 81.414062 171.632812 81.613281 171.515625 81.894531 171.253906 L 81.960938 171.257812 C 81.492188 171.773438 81.476562 171.871094 81.828125 172.0625 C 82.082031 172.199219 82.125 172.179688 82.589844 171.730469 L 83.082031 171.253906 L 82.691406 171.820312 C 82.476562 172.128906 82.304688 172.433594 82.304688 172.492188 C 82.304688 172.785156 82.65625 172.503906 83.417969 171.605469 C 84.121094 170.777344 86.878906 167.8125 87.476562 167.214844 C 87.820312 166.867188 85.84375 169.148438 85.175781 169.898438 C 84.789062 170.335938 84.296875 170.929688 84.082031 171.21875 C 83.867188 171.507812 83.519531 171.945312 83.3125 172.191406 C 82.882812 172.699219 82.851562 172.8125 83.144531 172.8125 C 83.273438 172.8125 83.480469 172.617188 83.691406 172.300781 C 84.242188 171.476562 84.832031 170.765625 85.640625 169.964844 C 86.054688 169.550781 86.664062 168.839844 86.992188 168.386719 C 87.320312 167.933594 87.648438 167.523438 87.722656 167.476562 C 88.074219 167.257812 86.019531 169.886719 85.585938 170.214844 C 85.144531 170.542969 83.890625 172.425781 83.890625 172.753906 C 83.890625 172.960938 84.109375 172.710938 84.5 172.066406 Z M 82.015625 171.554688 C 82.167969 171.394531 82.300781 171.527344 82.140625 171.679688 C 81.757812 172.039062 81.648438 171.925781 82.015625 171.554688 Z M 82.671875 170.878906 C 82.609375 170.980469 82.710938 170.820312 82.671875 170.878906 Z M 80.398438 169.710938 C 80.398438 169.65625 80.457031 169.566406 80.53125 169.503906 C 80.679688 169.378906 81.796875 168.933594 81.84375 168.980469 C 81.882812 169.019531 80.582031 169.800781 80.480469 169.800781 C 80.433594 169.804688 80.398438 169.761719 80.398438 169.710938 Z M 92.339844 159.265625 C 92.472656 159.039062 92.53125 158.796875 92.5 158.582031 L 92.453125 158.25 L 92.570312 158.542969 C 92.664062 158.789062 92.644531 158.910156 92.445312 159.269531 C 92.3125 159.503906 92.1875 159.679688 92.167969 159.660156 C 92.144531 159.636719 92.222656 159.460938 92.339844 159.265625 Z M 92.4375 157.371094 C 92.363281 157.277344 92.359375 157.230469 92.433594 157.230469 C 92.601562 157.230469 92.984375 157.921875 92.976562 158.210938 C 92.972656 158.410156 92.925781 158.363281 92.761719 157.988281 C 92.648438 157.726562 92.5 157.445312 92.4375 157.371094 Z M 92.4375 157.371094 "/></g><g style="fill:#6e62fa;fill-opacity:1;"><g transform="translate(46.570019, 187.373487)"><path style="stroke:none" d="M 42.46875 0 L 28.28125 0 L 13.640625 -28.21875 L 13.390625 -28.21875 C 13.484375 -27.363281 13.566406 -26.332031 13.640625 -25.125 C 13.710938 -23.914062 13.773438 -22.6875 13.828125 -21.4375 C 13.890625 -20.1875 13.921875 -19.0625 13.921875 -18.0625 L 13.921875 0 L 4.328125 0 L 4.328125 -40.046875 L 18.46875 -40.046875 L 33.046875 -12.21875 L 33.203125 -12.21875 C 33.148438 -13.09375 33.09375 -14.109375 33.03125 -15.265625 C 32.976562 -16.429688 32.929688 -17.609375 32.890625 -18.796875 C 32.847656 -19.984375 32.828125 -21.03125 32.828125 -21.9375 L 32.828125 -40.046875 L 42.46875 -40.046875 Z M 42.46875 0 "/></g></g><g style="fill:#ffffff;fill-opacity:1;"><g transform="translate(93.362011, 187.373487)"><path style="stroke:none" d="M 17.671875 -31.59375 C 20.679688 -31.59375 23.28125 -31.066406 25.46875 -30.015625 C 27.664062 -28.960938 29.359375 -27.382812 30.546875 -25.28125 C 31.734375 -23.1875 32.328125 -20.554688 32.328125 -17.390625 L 32.328125 -12.625 L 13.171875 -12.625 C 13.265625 -11 13.875 -9.664062 15 -8.625 C 16.125 -7.582031 17.78125 -7.0625 19.96875 -7.0625 C 21.90625 -7.0625 23.679688 -7.253906 25.296875 -7.640625 C 26.910156 -8.023438 28.578125 -8.617188 30.296875 -9.421875 L 30.296875 -1.71875 C 28.804688 -0.9375 27.171875 -0.363281 25.390625 0 C 23.617188 0.363281 21.382812 0.546875 18.6875 0.546875 C 15.5625 0.546875 12.765625 -0.0078125 10.296875 -1.125 C 7.835938 -2.238281 5.898438 -3.960938 4.484375 -6.296875 C 3.066406 -8.640625 2.359375 -11.644531 2.359375 -15.3125 C 2.359375 -19.039062 2.992188 -22.101562 4.265625 -24.5 C 5.546875 -26.90625 7.335938 -28.6875 9.640625 -29.84375 C 11.941406 -31.007812 14.617188 -31.59375 17.671875 -31.59375 Z M 18.0625 -24.296875 C 16.800781 -24.296875 15.742188 -23.898438 14.890625 -23.109375 C 14.035156 -22.316406 13.535156 -21.070312 13.390625 -19.375 L 22.609375 -19.375 C 22.585938 -20.28125 22.398438 -21.109375 22.046875 -21.859375 C 21.703125 -22.609375 21.195312 -23.203125 20.53125 -23.640625 C 19.863281 -24.078125 19.039062 -24.296875 18.0625 -24.296875 Z M 18.0625 -24.296875 "/></g></g><g style="fill:#ffffff;fill-opacity:1;"><g transform="translate(128.034766, 187.373487)"><path style="stroke:none" d="M 10.28125 -15.828125 L 0.796875 -31.046875 L 12.953125 -31.046875 L 17.671875 -22.328125 L 22.5 -31.046875 L 34.6875 -31.046875 L 24.953125 -15.828125 L 35.0625 0 L 22.90625 0 L 17.671875 -9.421875 L 12.46875 0 L 0.28125 0 Z M 10.28125 -15.828125 "/></g></g><g style="fill:#ffffff;fill-opacity:1;"><g transform="translate(163.364824, 187.373487)"><path style="stroke:none" d="M -0.0625 -31.046875 L 11.234375 -31.046875 L 16.5 -13.234375 C 16.570312 -12.972656 16.644531 -12.65625 16.71875 -12.28125 C 16.789062 -11.90625 16.851562 -11.507812 16.90625 -11.09375 C 16.957031 -10.675781 16.992188 -10.265625 17.015625 -9.859375 L 17.234375 -9.859375 C 17.328125 -10.609375 17.429688 -11.257812 17.546875 -11.8125 C 17.660156 -12.375 17.773438 -12.828125 17.890625 -13.171875 L 23.28125 -31.046875 L 34.21875 -31.046875 L 21.9375 1.96875 C 20.988281 4.488281 19.890625 6.601562 18.640625 8.3125 C 17.390625 10.019531 15.847656 11.304688 14.015625 12.171875 C 12.179688 13.046875 9.898438 13.484375 7.171875 13.484375 C 6.191406 13.484375 5.347656 13.429688 4.640625 13.328125 C 3.941406 13.222656 3.328125 13.117188 2.796875 13.015625 L 2.796875 4.609375 C 3.191406 4.679688 3.679688 4.753906 4.265625 4.828125 C 4.859375 4.898438 5.472656 4.9375 6.109375 4.9375 C 7.296875 4.9375 8.257812 4.695312 9 4.21875 C 9.738281 3.738281 10.34375 3.109375 10.8125 2.328125 C 11.289062 1.554688 11.707031 0.722656 12.0625 -0.171875 L 12.171875 -0.4375 Z M -0.0625 -31.046875 "/></g></g><g style="fill:#ffffff;fill-opacity:1;"><g transform="translate(231.650838, 229.944861)"><path style="stroke:none" d="M 18.40625 0 L 9.359375 0 L 9.359375 -26.109375 L 1.171875 -26.109375 L 1.171875 -33.515625 L 26.578125 -33.515625 L 26.578125 -26.109375 L 18.40625 -26.109375 Z M 18.40625 0 "/></g></g><g style="fill:#ffffff;fill-opacity:1;"><g transform="translate(259.387996, 229.944861)"><path style="stroke:none" d="M 28.359375 -25.96875 L 28.359375 0 L 21.59375 0 L 20.46875 -3.234375 L 19.953125 -3.234375 C 19.410156 -2.359375 18.726562 -1.648438 17.90625 -1.109375 C 17.09375 -0.566406 16.1875 -0.171875 15.1875 0.078125 C 14.195312 0.328125 13.171875 0.453125 12.109375 0.453125 C 10.410156 0.453125 8.875 0.125 7.5 -0.53125 C 6.132812 -1.1875 5.050781 -2.21875 4.25 -3.625 C 3.445312 -5.03125 3.046875 -6.84375 3.046875 -9.0625 L 3.046875 -25.96875 L 12.015625 -25.96875 L 12.015625 -11.78125 C 12.015625 -10.101562 12.253906 -8.820312 12.734375 -7.9375 C 13.210938 -7.0625 14.003906 -6.625 15.109375 -6.625 C 16.242188 -6.625 17.117188 -6.925781 17.734375 -7.53125 C 18.347656 -8.144531 18.773438 -9.046875 19.015625 -10.234375 C 19.265625 -11.429688 19.390625 -12.890625 19.390625 -14.609375 L 19.390625 -25.96875 Z M 28.359375 -25.96875 "/></g></g><g style="fill:#ffffff;fill-opacity:1;"><g transform="translate(290.838725, 229.944861)"><path style="stroke:none" d="M 15.8125 -6.625 C 16.625 -6.625 17.363281 -6.707031 18.03125 -6.875 C 18.707031 -7.039062 19.414062 -7.253906 20.15625 -7.515625 L 20.15625 -0.984375 C 19.175781 -0.554688 18.140625 -0.210938 17.046875 0.046875 C 15.953125 0.316406 14.554688 0.453125 12.859375 0.453125 C 11.179688 0.453125 9.695312 0.191406 8.40625 -0.328125 C 7.125 -0.859375 6.128906 -1.773438 5.421875 -3.078125 C 4.710938 -4.390625 4.359375 -6.210938 4.359375 -8.546875 L 4.359375 -19.265625 L 1.21875 -19.265625 L 1.21875 -22.90625 L 5.203125 -25.71875 L 7.515625 -31.1875 L 13.390625 -31.1875 L 13.390625 -25.96875 L 19.765625 -25.96875 L 19.765625 -19.265625 L 13.390625 -19.265625 L 13.390625 -9.140625 C 13.390625 -8.304688 13.601562 -7.675781 14.03125 -7.25 C 14.457031 -6.832031 15.050781 -6.625 15.8125 -6.625 Z M 15.8125 -6.625 "/></g></g><g style="fill:#ffffff;fill-opacity:1;"><g transform="translate(312.432446, 229.944861)"><path style="stroke:none" d="M 27.90625 -13.046875 C 27.90625 -10.878906 27.601562 -8.953125 27 -7.265625 C 26.40625 -5.585938 25.539062 -4.175781 24.40625 -3.03125 C 23.28125 -1.882812 21.914062 -1.015625 20.3125 -0.421875 C 18.707031 0.160156 16.894531 0.453125 14.875 0.453125 C 13 0.453125 11.273438 0.160156 9.703125 -0.421875 C 8.140625 -1.015625 6.773438 -1.882812 5.609375 -3.03125 C 4.453125 -4.175781 3.554688 -5.585938 2.921875 -7.265625 C 2.285156 -8.953125 1.96875 -10.878906 1.96875 -13.046875 C 1.96875 -15.921875 2.488281 -18.347656 3.53125 -20.328125 C 4.582031 -22.316406 6.082031 -23.832031 8.03125 -24.875 C 9.976562 -25.914062 12.304688 -26.4375 15.015625 -26.4375 C 17.503906 -26.4375 19.71875 -25.914062 21.65625 -24.875 C 23.601562 -23.832031 25.128906 -22.316406 26.234375 -20.328125 C 27.347656 -18.347656 27.90625 -15.921875 27.90625 -13.046875 Z M 11.078125 -13.046875 C 11.078125 -11.566406 11.207031 -10.316406 11.46875 -9.296875 C 11.726562 -8.273438 12.144531 -7.5 12.71875 -6.96875 C 13.289062 -6.445312 14.039062 -6.1875 14.96875 -6.1875 C 15.90625 -6.1875 16.644531 -6.445312 17.1875 -6.96875 C 17.738281 -7.5 18.140625 -8.273438 18.390625 -9.296875 C 18.648438 -10.316406 18.78125 -11.566406 18.78125 -13.046875 C 18.78125 -14.523438 18.648438 -15.757812 18.390625 -16.75 C 18.140625 -17.75 17.734375 -18.5 17.171875 -19 C 16.617188 -19.507812 15.867188 -19.765625 14.921875 -19.765625 C 13.566406 -19.765625 12.585938 -19.195312 11.984375 -18.0625 C 11.378906 -16.9375 11.078125 -15.265625 11.078125 -13.046875 Z M 11.078125 -13.046875 "/></g></g><g style="fill:#ffffff;fill-opacity:1;"><g transform="translate(342.347321, 229.944861)"><path style="stroke:none" d="M 18.78125 -26.4375 C 19.269531 -26.4375 19.78125 -26.398438 20.3125 -26.328125 C 20.84375 -26.265625 21.238281 -26.207031 21.5 -26.15625 L 20.703125 -17.703125 C 20.410156 -17.773438 20.035156 -17.835938 19.578125 -17.890625 C 19.117188 -17.941406 18.476562 -17.96875 17.65625 -17.96875 C 17.09375 -17.96875 16.488281 -17.914062 15.84375 -17.8125 C 15.195312 -17.707031 14.585938 -17.484375 14.015625 -17.140625 C 13.441406 -16.796875 12.972656 -16.273438 12.609375 -15.578125 C 12.242188 -14.878906 12.0625 -13.941406 12.0625 -12.765625 L 12.0625 0 L 3.09375 0 L 3.09375 -25.96875 L 9.765625 -25.96875 L 11.171875 -21.828125 L 11.59375 -21.828125 C 12.070312 -22.679688 12.679688 -23.457031 13.421875 -24.15625 C 14.160156 -24.851562 14.992188 -25.40625 15.921875 -25.8125 C 16.847656 -26.226562 17.800781 -26.4375 18.78125 -26.4375 Z M 18.78125 -26.4375 "/></g></g></g></svg>